
<svg xmlns="http://www.w3.org/2000/svg" viewBox="0 0 32 32">
<style>
    rect { fill: #000; }
    @media (prefers-color-scheme: dark) {
      rect { fill: #fff; }
    }
  </style>
    <rect x="6" y="26" width="6" height="2" />
    <rect x="6" y="10" width="6" height="2" />
    <rect x="6" y="20" width="4" height="8" />
    <rect x="6" y="10" width="4" height="8" />
    <rect x="4" y="18" width="4" height="2" />
    <rect x="20" y="26" width="6" height="2" transform="translate(46 54) rotate(-180)" />
    <rect x="20" y="10" width="6" height="2" transform="translate(46 22) rotate(-180)" />
    <rect x="22" y="20" width="4" height="8" transform="translate(48 48) rotate(-180)" />
    <rect x="22" y="10" width="4" height="8" transform="translate(48 28) rotate(-180)" />
    <rect x="18" y="2" width="4" height="4" transform="translate(40 8) rotate(-180)" />
    <rect x="14" y="6" width="4" height="6" transform="translate(32 18) rotate(-180)" />
    <rect x="24" y="18" width="4" height="2" transform="translate(52 38) rotate(-180)" />
</svg>
